<?xml version="1.0" encoding="UTF-8" standalone="no"?>
<svg
   xmlns:dc="http://purl.org/dc/elements/1.1/"
   xmlns:cc="http://creativecommons.org/ns#"
   xmlns:rdf="http://www.w3.org/1999/02/22-rdf-syntax-ns#"
   xmlns:svg="http://www.w3.org/2000/svg"
   xmlns="http://www.w3.org/2000/svg"
   viewBox="0 0 1600 1600"
   height="1600"
   width="1600"
   xml:space="preserve"
   id="svg2"
   version="1.1"><metadata
     id="metadata8"><rdf:RDF><cc:Work
         rdf:about=""><dc:format>image/svg+xml</dc:format><dc:type
           rdf:resource="http://purl.org/dc/dcmitype/StillImage" /></cc:Work></rdf:RDF></metadata><defs
     id="defs6"><clipPath
       id="clipPath18"
       clipPathUnits="userSpaceOnUse"><path
         id="path16"
         d="M 0,1200 H 1200 V 0 H 0 Z" /></clipPath></defs><g
     transform="matrix(1.3333333,0,0,-1.3333333,0,1600)"
     id="g10"><g
       id="g12"><g
         clip-path="url(#clipPath18)"
         id="g14"><g
           transform="translate(292.2862,274.8627)"
           id="g20"><path
             id="path22"
             style="fill:#313233;fill-opacity:1;fill-rule:nonzero;stroke:none"
             d="m 0,0 -52.493,127.109 h -0.749 L -106.861,0 Z m -118.11,-26.247 -24.746,-58.867 c -3.001,-5.999 -6.749,-9.749 -13.874,-9.749 -8.249,0 -13.498,5.625 -13.498,13.123 0,3.75 1.125,7.125 3.375,12.374 l 88.488,205.474 c 5.25,13.124 11.999,20.248 24.748,20.248 h 1.499 c 12.749,0 19.872,-7.124 25.497,-20.248 L 61.118,-73.491 c 1.124,-2.999 1.875,-6.374 1.875,-8.249 0,-7.498 -4.875,-13.123 -14.248,-13.123 -5.999,0 -10.874,3.75 -13.499,9.749 L 10.5,-26.247 Z" /></g><g
           transform="translate(478.414,264.7476)"
           id="g24"><path
             id="path26"
             style="fill:#313233;fill-opacity:1;fill-rule:nonzero;stroke:none"
             d="m 0,0 c 27.666,0 37.476,13.079 37.476,28.924 0,15.594 -9.81,28.673 -37.476,28.673 h -29.68 c -3.521,0 -5.03,-1.509 -5.03,-5.784 V 0 Z m 25.152,-21.128 39.99,-39.991 c 3.27,-3.019 4.78,-6.036 4.78,-9.809 0,-6.54 -6.037,-13.331 -14.085,-13.331 -4.528,0 -7.546,2.013 -10.565,5.282 L -6.54,-24.9 h -28.17 v -47.034 c 0,-7.546 -5.785,-12.325 -13.833,-12.325 -8.049,0 -13.833,4.779 -13.833,12.325 V 71.179 c 0,7.294 4.526,11.822 12.576,11.822 H 2.012 c 46.279,0 65.646,-25.152 65.646,-52.316 0,-20.373 -12.576,-45.022 -42.506,-51.813" /></g><g
           transform="translate(664.7921,180.489)"
           id="g28"><path
             id="path30"
             style="fill:#313233;fill-opacity:1;fill-rule:nonzero;stroke:none"
             d="m 0,0 c -11.821,0 -19.618,5.03 -25.402,19.367 l -53.071,128.274 c -1.258,3.27 -2.013,6.036 -2.013,8.049 0,8.048 6.541,13.33 14.84,13.33 6.037,0 11.067,-3.521 13.833,-10.564 L 0,27.667 h 0.503 l 52.82,131.04 c 2.514,6.792 7.042,10.313 13.581,10.313 8.05,0 13.833,-5.282 14.085,-12.576 0.252,-3.269 -0.754,-6.288 -2.264,-9.809 L 26.411,19.367 C 20.625,5.03 12.576,0 0,0" /></g><g
           transform="translate(807.4069,349.5089)"
           id="g32"><path
             id="path34"
             style="fill:#313233;fill-opacity:1;fill-rule:nonzero;stroke:none"
             d="m 0,0 c 8.049,0 13.835,-5.03 13.835,-12.324 v -144.372 c 0,-7.294 -5.786,-12.324 -13.835,-12.324 -8.048,0 -13.833,5.03 -13.833,12.324 V -12.324 C -13.833,-5.03 -8.048,0 0,0" /></g><g
           transform="translate(875.8414,198.3727)"
           id="g36"><path
             id="path38"
             style="fill:#313233;fill-opacity:1;fill-rule:nonzero;stroke:none"
             d="M 0,0 C 0,5.999 3.75,12.748 7.874,17.247 L 164.23,203.974 H 17.998 c -7.874,0 -13.499,4.499 -13.499,13.498 0,7.874 5.625,13.124 13.499,13.124 h 165.728 c 10.125,0 16.874,-6.374 16.874,-16.123 0,-6.374 -3.375,-12.748 -7.498,-17.623 L 35.246,10.499 h 152.606 c 7.874,0 14.248,-4.5 14.248,-13.498 0,-7.5 -6.374,-13.124 -14.248,-13.124 H 16.874 C 6.75,-16.123 0,-9.749 0,0" /></g><g
           transform="translate(686.7236,928.0411)"
           id="g40"><path
             id="path42"
             style="fill:#47c1e2;fill-opacity:1;fill-rule:nonzero;stroke:none"
             d="m 0,0 c 16.456,-16.043 33.622,-28.938 51.138,-40.789 5.838,-3.95 11.716,-7.784 17.619,-11.58 34.429,-21.613 71.946,-43.051 94.509,-77.617 2.175,-3.341 4.145,-6.699 5.897,-10.103 3.084,-5.42 5.406,-10.896 7.063,-16.389 0.306,4.379 0.236,8.928 -0.304,13.672 -0.519,4.565 -1.451,9.3 -2.835,14.211 C 155.463,-66.058 82.477,-47.658 49.67,3.937 29.586,35.523 20.188,68.931 -16.931,84.122 c -24.319,9.952 -51.652,9.723 -76.923,3.251 -35.261,-9.029 -71.89,-32.314 -91.578,-66.547 3.318,3.262 6.767,6.443 10.458,9.466 C -121.304,74.248 -43.975,42.869 0,0" /></g><g
           transform="translate(623.8981,608.9747)"
           id="g44"><path
             id="path46"
             style="fill:#47c1e2;fill-opacity:1;fill-rule:nonzero;stroke:none"
             d="m 0,0 c -65.356,65.03 -180.864,21.667 -242.183,85.949 4.294,-80.469 89.544,-117.985 157.644,-119.431 33.584,-0.713 69.15,2.85 100.44,18.617 1.939,0.977 3.856,2.003 5.75,3.075 -1.535,0.2 -3.069,0.39 -4.61,0.641 C 10.737,-7.146 3.591,-3.573 0,0" /></g><g
           transform="translate(384.1853,727.6715)"
           id="g48"><path
             id="path50"
             style="fill:#00bfbf;fill-opacity:1;fill-rule:nonzero;stroke:none"
             d="m 0,0 c 7.759,39.751 39.873,60.184 64.161,87.919 21.239,24.253 35.551,56.538 38.842,89.742 1.584,15.974 6.629,30.539 14.103,43.535 C 101.888,206.235 89.552,189.499 70.671,177.775 24.625,149.182 -20.814,135.333 -32.003,74.109 c -1.607,-8.792 -2.202,-17.725 -1.61,-26.658 10e-4,-26.797 8.041,-49.736 21.435,-68.475 3.053,-4.271 6.302,-8.153 9.707,-11.724 C -3.016,-22.527 -2.268,-11.621 0,0" /></g><g
           transform="translate(862.9493,771.5628)"
           id="g52"><path
             id="path54"
             style="fill:#00bfbf;fill-opacity:1;fill-rule:nonzero;stroke:none"
             d="m 0,0 c -3.186,-45.603 -49.761,-71.723 -89.269,-83.249 -14.212,-4.146 -29.666,-4.368 -43.479,-9.459 -4.064,-1.497 -7.879,-3.675 -11.454,-6.267 -16.271,-11.797 -24.525,-30.495 -37.368,-45.744 -10.235,-12.153 -22.451,-22.088 -35.83,-29.659 34.408,-4.482 67.385,3.639 97.824,18.053 6.36,3.012 12.609,6.296 18.737,9.796 6.353,2.714 12.606,5.854 18.684,9.378 6.078,3.524 11.98,7.432 17.63,11.683 C -24.003,-99.122 14.726,-48.824 0,0" /></g><g
           transform="translate(681.3797,626.8439)"
           id="g56"><path
             id="path58"
             style="fill:#0d7591;fill-opacity:1;fill-rule:nonzero;stroke:none"
             d="m 0,0 c 12.843,15.249 21.097,33.947 37.368,45.744 3.575,2.592 7.39,4.77 11.454,6.267 13.812,5.091 29.267,5.313 43.478,9.459 39.508,11.526 86.084,37.646 89.27,83.249 -1.657,5.493 -3.979,10.969 -7.063,16.389 -1.752,3.404 -3.722,6.762 -5.897,10.104 -22.563,34.565 -60.08,56.003 -94.509,77.616 -5.903,3.796 -11.781,7.63 -17.619,11.581 -17.516,11.85 -34.682,24.745 -51.138,40.788 -43.975,42.869 -121.304,74.248 -174.974,30.292 -3.691,-3.022 -7.14,-6.204 -10.458,-9.466 -7.474,-12.995 -12.52,-27.561 -14.103,-43.535 -3.292,-33.204 -17.604,-65.489 -38.843,-89.742 -24.288,-27.734 -56.401,-48.168 -64.16,-87.918 -2.268,-11.621 -3.016,-22.528 -2.471,-32.748 61.319,-64.282 176.828,-20.919 242.183,-85.949 3.591,-3.573 10.738,-7.146 17.042,-11.15 1.54,-0.251 3.074,-0.441 4.61,-0.641 C -22.452,-22.088 -10.236,-12.153 0,0" /></g></g></g></g></svg>