<?xml version="1.0" encoding="UTF-8" standalone="no"?>
<svg
   xmlns:dc="http://purl.org/dc/elements/1.1/"
   xmlns:cc="http://creativecommons.org/ns#"
   xmlns:rdf="http://www.w3.org/1999/02/22-rdf-syntax-ns#"
   xmlns:svg="http://www.w3.org/2000/svg"
   xmlns="http://www.w3.org/2000/svg"
   viewBox="0 0 1600 1600"
   height="1600"
   width="1600"
   xml:space="preserve"
   id="svg2"
   version="1.1"><metadata
     id="metadata8"><rdf:RDF><cc:Work
         rdf:about=""><dc:format>image/svg+xml</dc:format><dc:type
           rdf:resource="http://purl.org/dc/dcmitype/StillImage" /></cc:Work></rdf:RDF></metadata><defs
     id="defs6"><clipPath
       id="clipPath18"
       clipPathUnits="userSpaceOnUse"><path
         id="path16"
         d="M 0,1200 H 1200 V 0 H 0 Z" /></clipPath></defs><g
     transform="matrix(1.3333333,0,0,-1.3333333,0,1600)"
     id="g10"><g
       id="g12"><g
         clip-path="url(#clipPath18)"
         id="g14"><g
           transform="translate(748.2747,846.2553)"
           id="g20"><path
             id="path22"
             style="fill:#47c1e2;fill-opacity:1;fill-rule:nonzero;stroke:none"
             d="m 0,0 c 31.092,-30.311 63.524,-54.674 96.619,-77.065 11.031,-7.464 22.136,-14.708 33.289,-21.88 65.049,-40.835 135.933,-81.34 178.562,-146.646 4.11,-6.313 7.831,-12.657 11.142,-19.09 5.827,-10.241 10.214,-20.586 13.344,-30.965 0.579,8.275 0.446,16.869 -0.574,25.832 -0.981,8.624 -2.741,17.571 -5.356,26.85 C 293.727,-124.808 155.829,-90.043 93.846,7.438 55.898,67.117 38.143,130.237 -31.988,158.937 c -45.949,18.804 -97.59,18.371 -145.338,6.144 -66.62,-17.06 -135.826,-61.055 -173.024,-125.733 6.269,6.164 12.786,12.174 19.759,17.885 C -229.188,140.282 -83.085,80.996 0,0" /></g><g
           transform="translate(629.5738,243.4199)"
           id="g24"><path
             id="path26"
             style="fill:#47c1e2;fill-opacity:1;fill-rule:nonzero;stroke:none"
             d="m 0,0 c -123.481,122.865 -341.72,40.938 -457.575,162.39 8.114,-152.037 169.183,-222.917 297.848,-225.649 63.454,-1.348 130.651,5.384 189.77,35.173 3.663,1.846 7.285,3.784 10.864,5.81 -2.9,0.377 -5.799,0.736 -8.71,1.21 C 20.287,-13.502 6.785,-6.751 0,0" /></g><g
           transform="translate(176.6668,467.6823)"
           id="g28"><path
             id="path30"
             style="fill:#00bfbf;fill-opacity:1;fill-rule:nonzero;stroke:none"
             d="m 0,0 c 14.66,75.104 75.334,113.711 121.223,166.112 40.129,45.822 67.17,106.821 73.389,169.556 2.991,30.18 12.524,57.699 26.646,82.253 -28.753,-28.266 -52.061,-59.886 -87.735,-82.038 -86.998,-54.022 -172.848,-80.188 -193.988,-195.864 -3.036,-16.611 -4.161,-33.488 -3.042,-50.366 0.002,-50.63 15.192,-93.97 40.497,-129.375 5.77,-8.071 11.908,-15.405 18.342,-22.151 C -5.698,-42.563 -4.285,-21.956 0,0" /></g><g
           transform="translate(1081.2308,550.6094)"
           id="g32"><path
             id="path34"
             style="fill:#00bfbf;fill-opacity:1;fill-rule:nonzero;stroke:none"
             d="m 0,0 c -6.019,-86.161 -94.018,-135.512 -168.663,-157.288 -26.851,-7.834 -56.05,-8.253 -82.147,-17.871 -7.678,-2.83 -14.887,-6.944 -21.641,-11.842 -30.742,-22.288 -46.337,-57.615 -70.602,-86.427 -19.339,-22.962 -42.419,-41.732 -67.697,-56.038 65.01,-8.468 127.317,6.877 184.827,34.11 12.015,5.69 23.822,11.895 35.4,18.507 12.003,5.129 23.819,11.062 35.302,17.72 11.483,6.658 22.634,14.042 33.31,22.073 C -45.35,-187.278 27.823,-92.247 0,0" /></g><g
           transform="translate(738.178,277.1815)"
           id="g36"><path
             id="path38"
             style="fill:#0d7591;fill-opacity:1;fill-rule:nonzero;stroke:none"
             d="m 0,0 c 24.265,28.812 39.86,64.139 70.602,86.427 6.754,4.898 13.962,9.012 21.641,11.842 26.097,9.618 55.296,10.037 82.147,17.87 74.645,21.777 162.644,71.128 168.663,157.289 -3.131,10.379 -7.518,20.724 -13.345,30.965 -3.31,6.432 -7.031,12.777 -11.141,19.09 -42.629,65.306 -113.513,105.811 -178.562,146.646 -11.153,7.172 -22.259,14.416 -33.29,21.88 -33.094,22.391 -65.526,46.754 -96.618,77.065 -83.085,80.996 -229.189,140.281 -330.592,57.233 -6.973,-5.711 -13.489,-11.722 -19.758,-17.885 -14.122,-24.554 -23.655,-52.073 -26.647,-82.254 -6.219,-62.734 -33.26,-123.733 -73.388,-169.556 -45.889,-52.4 -106.563,-91.007 -121.223,-166.111 -4.285,-21.956 -5.699,-42.563 -4.668,-61.873 115.855,-121.452 334.093,-39.524 457.575,-162.39 6.784,-6.75 20.287,-13.501 32.197,-21.065 2.911,-0.474 5.809,-0.833 8.71,-1.211 C -42.42,-41.733 -19.339,-22.962 0,0" /></g><g
           transform="translate(675.0715,556.9509)"
           id="g40"><path
             id="path42"
             style="fill:#ffffff;fill-opacity:1;fill-rule:nonzero;stroke:none"
             d="m 0,0 -73.497,177.969 h -1.049 L -149.62,0 Z m -165.369,-36.749 -34.648,-82.421 c -4.202,-8.401 -9.45,-13.65 -19.426,-13.65 -11.55,0 -18.898,7.875 -18.898,18.374 0,5.25 1.574,9.975 4.725,17.325 l 123.895,287.69 c 7.35,18.375 16.8,28.349 34.65,28.349 h 2.099 c 17.85,0 27.823,-9.974 35.699,-28.349 L 85.573,-102.896 c 1.574,-4.2 2.625,-8.925 2.625,-11.55 0,-10.499 -6.825,-18.374 -19.949,-18.374 -8.399,0 -15.224,5.249 -18.901,13.65 l -34.647,82.421 z" /></g></g></g></g></svg>