<?xml version="1.0" encoding="UTF-8"?>
<svg id="Layer_2" data-name="Layer 2" xmlns="http://www.w3.org/2000/svg" viewBox="0 0 200 200">
  <defs>
    <style>
      .cls-1, .cls-2, .cls-3, .cls-4 {
        fill: none;
      }

      .cls-2, .cls-5, .cls-6, .cls-3, .cls-4 {
        stroke: #077590;
      }

      .cls-2, .cls-3, .cls-4 {
        stroke-linecap: round;
        stroke-linejoin: round;
      }

      .cls-7, .cls-5 {
        fill: #00c3c1;
      }

      .cls-8, .cls-6 {
        fill: #00c4e6;
      }

      .cls-9 {
        fill: #077590;
      }

      .cls-5, .cls-6 {
        stroke-miterlimit: 10;
      }

      .cls-3 {
        stroke-dasharray: 0 0 4.8328 4.8328;
      }

      .cls-10 {
        fill: #fff;
        font-family: OpenSansRoman-ExtraBold, 'Open Sans';
        font-size: 23.8456px;
        font-variation-settings: 'wght' 800, 'wdth' 100;
      }

      .cls-4 {
        stroke-dasharray: 0 0 3.7764 3.7764;
      }
    </style>
  </defs>
  <g id="Layer_2-2" data-name="Layer 2">
    <g>
      <g>
        <text class="cls-10" transform="translate(144.8472 109.9341)"><tspan x="0" y="0">B</tspan></text>
        <text class="cls-10" transform="translate(62.144 163.9341)"><tspan x="0" y="0">C</tspan></text>
        <g>
          <path class="cls-7" d="M36.9026,54.9975c3.9072-4.5923,2.1059-9.4383,4.8714-14.0559,.0761-.1269,.1776-.2791,.2537-.4059-2.5625,2.2581-4.2117,4.8714-5.937,5.6833-7.3324,3.4252-13.5992,8.2712-13.0411,16.314,.2791,4.4147,1.6999,7.6115,3.9072,9.9457-.5328-8.3473,5.4042-12.1277,9.9457-17.4811Z"/>
          <path class="cls-7" d="M87.0748,62.0508v.9134c-.6597,7.1548-9.2861,10.2502-11.3919,10.58-8.4488,1.294-8.2966,4.5669-12.356,8.6264-1.0402,1.0402-2.1566,1.8521-3.3744,2.5372,12.3053,.9641,26.9702-8.9308,27.5283-19.0034,.0761-1.3447-.0761-2.5372-.4059-3.6535Z"/>
          <path class="cls-8" d="M63.5936,41.9818c10.7576,10.1741,21.2615,12.7366,23.4435,20.069-.203-6.3683-5.734-10.2756-9.7681-13.244-5.937-4.3386-6.5205-6.8757-8.7786-10.9098-2.7655-4.8714-6.9265-5.9624-10.6308-5.9877-6.4444-.0507-12.762,3.8819-15.8066,8.601,1.979-1.7253,4.4654-3.273,7.9667-3.6282,4.1102-.4059,10.6308,2.3342,13.5739,5.0997Z"/>
          <path class="cls-8" d="M42.9026,78.1338c-6.5966-.3806-12.356-1.8014-15.9588-5.5564l-.0087,.0039c.588,8.8513,9.2508,14.2781,18.733,14.7624,4.5415,.2283,9.8442-.1015,14.1828-2.5118h-.1522c-2.4864-.2537-4.4654-5.9877-16.7961-6.6981Z"/>
          <path class="cls-9" d="M75.6198,73.44c2.1059-.3298,10.7069-3.4252,11.3919-10.58,.0254-.3045,0-.6089,0-.9134-2.182-7.3324-12.6605-9.895-23.4435-20.069-2.9177-2.7655-9.4637-5.531-13.5993-5.0743-3.4759,.3806-5.9877,1.9029-7.9667,3.6282-.0761,.1269-.1776,.2791-.2537,.4059-2.7655,4.6177-.9895,9.4637-4.8714,14.0559-4.5415,5.3534-10.4785,9.1085-9.9203,17.4558,3.6028,3.7804,9.3622,5.1758,15.9588,5.5564,12.549,.7488,14.3765,6.6744,16.902,6.6783l.021-.0055c1.2178-.685,2.3596-1.4969,3.3744-2.5372,4.1102-4.0341,3.9834-7.2817,12.4068-8.601Z"/>
        </g>
        <rect class="cls-6" x="116.125" y="118.125" width="47" height="47"/>
        <circle class="cls-5" cx="55.25" cy="142.25" r="23"/>
        <polygon class="cls-5" points="139.5 41.3978 115.9 82.2742 163.1 82.2742 139.5 41.3978"/>
        <g>
          <line class="cls-2" x1="55.4163" y1="110" x2="55.4163" y2="107"/>
          <line class="cls-4" x1="55.4163" y1="103.2236" x2="55.4163" y2="97.5591"/>
          <line class="cls-2" x1="55.4163" y1="95.6709" x2="55.4163" y2="92.6709"/>
        </g>
        <g>
          <line class="cls-2" x1="112.0808" y1="63.3354" x2="109.0808" y2="63.3354"/>
          <line class="cls-4" x1="105.3045" y1="63.3354" x2="99.6399" y2="63.3354"/>
          <line class="cls-2" x1="97.7517" y1="63.3354" x2="94.7517" y2="63.3354"/>
        </g>
        <g>
          <line class="cls-2" x1="110.8727" y1="112.1273" x2="109.1049" y2="110.3595"/>
          <line class="cls-3" x1="105.6877" y1="106.9423" x2="86.8927" y2="88.1473"/>
          <line class="cls-2" x1="85.184" y1="86.4386" x2="83.4163" y2="84.6709"/>
        </g>
      </g>
      <rect class="cls-1" width="200" height="200"/>
    </g>
  </g>
</svg>