<?xml version="1.0" encoding="UTF-8"?>
<svg id="donate_merch" data-name="Layer 2" xmlns="http://www.w3.org/2000/svg" viewBox="0 0 240 240">
  <defs>
    <style>
      .cls-1 {
        fill: none;
      }

      .cls-2 {
        fill: #00c3c1;
      }

      .cls-3 {
        fill: #00c4e6;
      }

      .cls-4 {
        fill: #fff;
      }

      .cls-5 {
        fill: #077590;
      }

      .cls-6 {
        fill: #0a7590;
      }
      <!-- This only works if embedded -->
      #t-shirt-bottom,
      #t-shirt-top {
        transition: 0.5s;
      }
      #t-shirt-bottom:hover {
        margin-bottom: -3px;
        margin-right: -5px;
        transform: rotate(-5deg);
      }
      #t-shirt-top:hover {
        margin-top: -6px;
        margin-left: -5px;
        transform: rotate(3deg);
      }

    </style>
  </defs>
  <g id="Layer_2-2" data-name="Layer 2">
    <rect class="cls-1" width="240" height="240"/>
    <g id="t-shirt-bottom">
      <g>
        <path class="cls-2" d="M140.311,86.3002c-12.873,5.769-26.6133,9.5983-40.6146,11.3187-1.2889,.1584-2.7422,.392-3.4779,1.4621-.42,.6108-.5144,1.3814-.5889,2.1189-.9867,9.7711-.5735,19.6825,1.2229,29.3375,5.2509-.8278,10.5019-1.6555,15.7529-2.4833-2.419,3.263-8.7463,20.1506-10.8296,29.3063-.2691,1.1825-.6316,2.4172-.2734,3.5758,.3844,1.2435,1.4555,2.1322,2.4891,2.9231,16.2094,12.4035,36.5487,19.3111,56.9592,19.3444,1.7756,.0029,3.6813-.0872,5.1007-1.154,1.305-.9809,1.9388-2.5943,2.5112-4.1233,4.5479-12.1487,9.0958-24.2974,13.6438-36.4461,1.74,5.215,11.8396,6.1942,13.5539,6.571,2.3407,.5144,9.7455-5.0531,13.2349-9.3015,1.1684-1.4226,2.3324-3.1304,2.036-4.9472-.2236-1.3703-1.1972-2.4935-2.1842-3.47-9.8159-9.7114-23.8242-28.4752-25.4722-35.9606-.0807-.3665-.4584-.5967-.8161-.4828-19.7952,6.3047-32.953,.3993-42.2477-7.589Z"/>
        <path class="cls-5" d="M139.554,85.005c-9.6502,4.3056-19.7892,7.5059-30.1558,9.5523-2.5852,.5104-5.1851,.9488-7.795,1.3125-2.088,.291-4.6489,.2492-6.2275,1.8788-1.5585,1.6089-1.3683,4.5133-1.5135,6.5791-.1919,2.7302-.2752,5.4679-.2503,8.2047,.0562,6.174,.6793,12.3322,1.7942,18.4037,.1576,.8584,1.1043,1.1645,1.8452,1.0477,5.251-.8278,10.5019-1.6555,15.7529-2.4833l-1.694-2.2035c-1.6161,2.2302-2.6087,5.0313-3.6467,7.5556-1.6119,3.9198-3.062,7.9091-4.3932,11.9326-1.2816,3.8737-2.7185,7.9219-3.3128,11.9733-.4242,2.8912,1.104,4.7307,3.277,6.396,2.1368,1.6377,4.3494,3.1775,6.6226,4.6195,9.0749,5.7568,19.1659,9.969,29.6296,12.4127,5.2326,1.222,10.5777,2.0082,15.9409,2.3408,4.6163,.2863,10.8087,1.2056,13.4477-3.5782,1.5602-2.8283,2.4528-6.1479,3.5826-9.1659,1.2244-3.2708,2.4489-6.5416,3.6733-9.8124,2.5072-6.6974,5.0144-13.3947,7.5216-20.0921h-2.8928c1.3656,3.784,5.3704,5.5032,8.9864,6.487,1.4981,.4076,3.0232,.6912,4.5535,.9455,1.2926,.2148,2.3777,.3573,3.6515-.1182,2.033-.7589,3.8683-2.0243,5.5855-3.3283,1.9537-1.4836,3.8251-3.0917,5.497-4.8903,1.8423-1.9819,3.9083-4.4783,3.4704-7.3715-.3898-2.5757-2.6052-4.2962-4.305-6.0679-6.8494-7.1395-13.0913-15.0618-18.3744-23.4284-1.8727-2.9657-3.9098-6.1422-4.8581-9.5552-.2693-.9695-.6268-1.8909-1.7425-2.133-.6861-.1489-1.331,.1124-1.9805,.3086-.8914,.2694-1.7884,.5208-2.691,.75-2.8753,.7302-5.8018,1.2509-8.7629,1.4568-5.5741,.3876-11.1407-.3232-16.3699-2.3201-4.4225-1.6888-8.4615-4.3079-12.0485-7.3745-1.46-1.2482-3.5917,.8643-2.1213,2.1213,6.4286,5.496,13.9735,9.305,22.4238,10.3639,5.1687,.6477,10.4153,.2381,15.4981-.8447,1.4856-.3165,2.958-.6951,4.4149-1.1243,.1321-.0389,.8952-.2238,.9112-.2758-.2766,.9008-.4788-1.202-.4703-.3001,.0028,.3006,.1984,.6828,.2972,.9702,.5185,1.5086,1.2073,2.9646,1.9445,4.3771,4.1843,8.0166,9.8892,15.3688,15.6851,22.2719,1.4867,1.7707,3.0087,3.5124,4.5764,5.212,1.4451,1.5668,3.3403,3.04,4.5042,4.8238,1.5521,2.3787-.9872,4.8562-2.5753,6.4948-1.6151,1.6664-3.3862,3.2063-5.2701,4.5617-1.4106,1.0149-3.3065,2.3531-4.8538,2.6797-.4165,.0879-.0404,.0423-.4468-.0191-.2389-.0361-.4769-.0811-.7152-.1208-.7387-.123-1.477-.2475-2.2114-.3943-3.0243-.6045-8.1035-1.6127-9.3099-4.9554-.5168-1.4321-2.3659-1.4075-2.8928,0-4.1398,11.0584-8.2795,22.1169-12.4193,33.1753-.4745,1.2675-.9343,2.5417-1.4265,3.8023-.4192,1.0735-.9346,2.2513-1.9311,2.9093-1.7759,1.1725-4.5736,.7549-6.5829,.6954-5.109-.1512-10.1968-.7327-15.2079-1.7386-9.8145-1.9701-19.296-5.4893-27.9964-10.4422-2.1548-1.2267-4.2615-2.5382-6.3112-3.9334-1.0543-.7176-2.094-1.4567-3.1176-2.2175-.9151-.6801-2.1158-1.4108-2.6622-2.4475-.5624-1.0671-.052-2.4167,.206-3.5084,.1947-.8233,.4038-1.6429,.6245-2.4596,.4881-1.8064,1.0275-3.5988,1.5943-5.382,1.3679-4.3028,2.8872-8.5625,4.5674-12.7533,1.0685-2.6649,2.1037-5.6246,3.8035-7.9703,.8595-1.1861-.5569-2.3827-1.694-2.2035-5.251,.8278-10.5019,1.6555-15.7529,2.4833l1.8452,1.0477c-.936-5.0971-1.4901-10.2526-1.6448-15.4332-.0769-2.5748-.0589-5.1524,.0556-7.7258,.0537-1.2063,.1287-2.4116,.2247-3.6152,.0761-.9544-.0859-2.6972,.5626-3.4945,.5154-.6338,1.6868-.6822,2.4302-.7798,1.2858-.1689,2.5715-.3354,3.8542-.5274,2.4529-.3671,4.896-.8,7.3262-1.2956,4.8603-.9913,9.6687-2.2393,14.3984-3.7344,5.2989-1.6751,10.4877-3.6733,15.5622-5.9373,1.7598-.7852,.2356-3.3711-1.5142-2.5904Z"/>
      </g>
      <g>
        <path class="cls-4" d="M138.8633,155.0234c-2.7764-.2529-5.7383-1.3486-9.0117-3.3291-6.8389-4.1436-9.8506-11.04-7.4453-16.9072-.5293-2.4922-.1553-5.1543,1.1152-7.9209,3.2969-7.2949,12.082-6.793,14.9717-6.6338,.4912,.0273,1.3594-.2871,2.2949-.6182,.7227-.2549,1.5342-.542,2.4238-.7754l.2188-.1328,.2969-.0654c4.1846-2.0977,9.6465-2.0361,13.665,.167,3.4766,1.9023,5.2842,4.7744,5.3691,8.5371,.0088,.5723,.0029,1.0928-.0029,1.5918-.0273,2.2744-.0469,3.918,1.6582,7.4834l.1133,.2393c.7178,1.5107,1.5547,3.2725,2.0527,5.1689l.4365,3.375c-.0264,1.3145-.3096,2.6582-.9766,3.998l-.2256,.4531-.7812,2.0742c-.2344,.3828-.5,.7471-.7939,1.0908l-2.6016,2.1689c-5.7344,3.4727-15.5381,3.2998-21.8701,.0879-.1211-.0029-.2422-.0078-.3633-.0137"/>
        <g>
          <path class="cls-2" d="M135.9832,127.2647c3.953-1.5429,4.4528-5.1468,7.7066-7.0862,.0895-.0532,.2031-.1137,.2926-.167-2.3412,.5448-4.2347,1.6143-5.5747,1.5421-5.6864-.3227-11.1863,.5904-13.5227,5.761-1.2994,2.829-1.485,5.284-.8955,7.4667,2.4537-5.3507,7.3937-5.7135,11.9937-7.5165Z"/>
          <path class="cls-2" d="M164.4192,148.9346c-2.795,4.214-9.1733,3.2554-10.5883,2.7574-5.6675-2.0158-6.6647,.0633-10.5343,1.2252-.9916,.2977-1.9542,.4286-2.9374,.447,7.3044,4.7014,19.6926,3.46,23.3977-2.5961"/>
          <path class="cls-3" d="M164.7005,148.356c1.9981-4.0143-.1266-8.2803-1.6366-11.4654-2.2324-4.6687-1.7478-6.4357-1.8018-9.6888-.0892-3.9412-2.304-6.005-4.5912-7.2562-3.9768-2.1807-9.2035-1.8505-12.6642,.0587,1.8018-.4092,3.8589-.5391,6.1472,.4085,2.6826,1.1192,5.8097,4.992,6.7113,7.6874,3.2737,9.8928,8.9286,14.984,7.8354,20.2558"/>
          <path class="cls-3" d="M131.9855,143.6039c-3.9612-2.4359-7.0566-5.2372-8.037-8.7658l-.0067-.0005c-2.5876,5.6815,.9711,11.9337,6.686,15.3962,2.7384,1.6561,6.1346,3.2202,9.6271,3.1734l-.0943-.0508c-1.4563-.9865-.7704-5.2-8.1751-9.7526Z"/>
          <path class="cls-5" d="M164.7195,148.283c1.0932-5.2718-4.546-10.3545-7.8354-20.2558-.8859-2.6869-4.0202-6.5839-6.7355-7.6801-2.281-.9234-4.3454-.8177-6.1472-.4085-.0895,.0532-.2031,.1137-.2926,.167-3.2539,1.9394-3.7694,5.5349-7.7066,7.0862-4.5999,1.803-9.5315,2.1501-11.9695,7.5093,.972,3.5443,4.0758,6.3299,8.037,8.7658,7.5272,4.6492,6.6835,8.9309,8.2473,9.7756l.0148,.0036c.9832-.0184,1.9615-.1408,2.9374-.447,3.8926-1.1293,4.8971-3.1842,10.5573-1.1926,1.4151,.4979,7.7776,1.4481,10.5883-2.7574"/>
        </g>
      </g>
    </g>
    <g id="t-shirt-top">
      <g>
        <path class="cls-4" d="M81.8457,60.5846c13.6498,3.5608,27.8341,5.0651,41.9272,4.4465,1.2974-.0569,2.7693-.0669,3.6718,.8668,.5152,.533,.7358,1.2773,.9312,1.9923,2.5889,9.4734,3.8205,19.3166,3.6455,29.1358-5.3155,.052-10.6311,.1039-15.9466,.1559,2.9253,2.818,11.9581,18.4268,15.5269,27.1119,.4609,1.1218,1.0226,2.2794,.861,3.4814-.1734,1.2899-1.0829,2.3435-1.9715,3.2945-13.9351,14.9133-32.852,25.0892-52.976,28.4973-1.7507,.2965-3.645,.5228-5.2213-.2946-1.4493-.7516-2.3412-2.238-3.1585-3.6512-6.4943-11.2294-12.9886-22.4587-19.483-33.6881-.8537,5.431-10.6523,8.0669-12.2807,8.7219-2.2234,.8944-10.447-3.3719-14.5908-6.9848-1.3876-1.2097-2.818-2.7015-2.826-4.5424-.0061-1.3884,.7683-2.6571,1.5803-3.7834,8.0747-11.2009,18.7873-32.0229,19.1747-39.6778,.019-.3748,.3534-.6643,.725-.6112,20.5653,2.9444,32.5653-5.0556,40.411-14.471Z"/>
        <path class="cls-6" d="M81.4469,62.031c9.75,2.5257,19.7634,4.0456,29.8266,4.4942,2.5623,.1142,5.1275,.1592,7.6923,.1347,1.2022-.0115,2.4042-.0389,3.6057-.0814,.9776-.0345,2.1764-.2514,3.1301,.0359,.9893,.298,1.1111,1.2385,1.352,2.1333,.35,1.3,.6721,2.6078,.9698,3.9207,.5429,2.3943,1.0013,4.808,1.3724,7.2349,.8658,5.6621,1.2143,11.3973,1.1255,17.1228l1.5-1.5c-5.3155,.052-10.6311,.1039-15.9466,.1559-1.2862,.0126-1.9963,1.6395-1.0607,2.5607,1.7606,1.7334,3.08,4.0887,4.4031,6.2165,2.1164,3.4037,4.0985,6.8934,5.9821,10.4309,1.777,3.3373,3.4979,6.7238,4.9319,10.2249,.5352,1.3067,.9591,2.4121,.1187,3.6775-.6574,.99-1.5929,1.8361-2.4199,2.6823-1.7,1.7395-3.4686,3.4121-5.3006,5.012-7.332,6.403-15.7032,11.6223-24.6444,15.4654-4.4715,1.9219-9.1115,3.4737-13.8298,4.6646-2.3573,.5949-4.74,1.1065-7.1388,1.5039-1.1283,.1869-2.3599,.3772-3.4814,.0643-1.219-.3401-1.9738-1.3122-2.6208-2.3406-3.4718-5.5183-6.5615-11.3164-9.8256-16.9604-3.4137-5.9026-6.8274-11.8052-10.241-17.7078-.605-1.046-2.503-.9486-2.7416,.3583-.6113,3.3487-4.6109,5.1613-7.4389,6.2982-1.1621,.4672-2.3477,.8726-3.5324,1.2777-1.0381,.355-2.4308-.1609-3.6833-.6533-2.0966-.8242-4.099-1.9468-5.9992-3.1498-1.8921-1.1979-4.0744-2.5879-5.4065-4.4285-1.7314-2.3924,.6543-4.6856,1.9936-6.643,1.291-1.8868,2.5221-3.8147,3.712-5.7667,4.8514-7.9586,9.3491-16.3663,12.5023-25.1572,.5768-1.6082,1.1051-3.2435,1.4647-4.9154,.1454-.676,.2579-1.3595,.3338-2.0469,.0043-.0393,.0732-.5067,.0478-.5179l-.3559,.3668c-.4995,.3181-.4852,.4582,.0429,.4204,.5799,.3251,2.0068,.2453,2.6558,.3058,5.1891,.4835,10.463,.2863,15.5573-.8601,9.0928-2.0462,16.8686-7.3292,22.8063-14.4192,1.2317-1.4707-.8798-3.6038-2.1213-2.1213-5.5942,6.6798-12.7454,11.6468-21.3146,13.6099-5.4607,1.251-11.1451,1.2837-16.6873,.6008-1.2399-.1528-2.5653-.3734-3.2996,.914-.3999,.7011-.305,1.6274-.4356,2.3395-.312,1.7014-.8316,3.365-1.3997,4.9961-3.2311,9.2767-8.1067,18.1466-13.3027,26.4529-1.2555,2.0071-2.5618,3.9811-3.9336,5.9106-1.7786,2.5017-2.7453,5.288-.8568,8.0452,1.3929,2.0336,3.5706,3.5743,5.5952,4.928,2.1083,1.4096,4.3425,2.6524,6.6767,3.6466,1.7171,.7314,3.9123,1.6932,5.8184,1.177,1.3225-.3581,2.6501-.9091,3.919-1.4191,3.7908-1.5235,8.7177-3.921,9.5342-8.3935l-2.7416,.3583c6.4111,11.0854,12.8162,22.1742,19.2332,33.2562,1.2646,2.1839,2.6535,4.4268,5.2471,5.1314,2.5313,.6877,5.3655-.0776,7.867-.5817,5.0336-1.0144,9.9812-2.4518,14.7796-4.279,9.731-3.7055,18.8135-8.9436,26.888-15.5182,2.0432-1.6637,4.0161-3.4135,5.9108-5.2446,1.773-1.7135,4.0362-3.577,5.1407-5.8212,1.2048-2.4481,.0471-4.7879-.941-7.0794-.7661-1.7767-1.6014-3.5236-2.4659-5.2544-2.1728-4.3503-4.5297-8.6154-7.0435-12.7779-1.7138-2.8377-3.4527-6.052-5.8376-8.4001l-1.0607,2.5607c5.3155-.052,10.6311-.1039,15.9466-.1559,.8202-.008,1.4873-.6809,1.5-1.5,.0822-5.2983-.2295-10.5877-.9354-15.8395-.3571-2.6572-.8072-5.3005-1.364-7.9233-.498-2.3455-.8742-5.0109-1.8966-7.1946-.9782-2.0892-3.0589-2.6008-5.1949-2.5513-2.605,.0604-5.2026,.1667-7.8096,.1432-5.3697-.0484-10.7371-.4018-16.0667-1.0592-6.0721-.749-12.0883-1.9292-18.0097-3.4631-1.8702-.4845-2.668,2.4083-.7975,2.8928Z"/>
      </g>
      <g>
        <path class="cls-2" d="M70.3456,109.9404c.7654-4.1738-2.0377-6.4934-1.977-10.2809,.0018-.1041,.01-.2326,.0118-.3367-.7672,2.278-.8528,4.451-1.6186,5.5529-3.2637,4.6677-5.378,9.8264-2.2076,14.532,1.7235,2.5924,3.7144,4.0409,5.8811,4.6868-3.262-4.9-.9738-9.2932-.0896-14.1541Z"/>
        <path class="cls-2" d="M103.7279,97.1412c2.1156,4.5928-2.0528,9.5149-3.2202,10.4569-4.694,3.7616-3.4496,5.7028-4.4953,9.6055-.268,1-.6627,1.8877-1.1639,2.7338,7.8391-3.7424,13.2951-14.9335,10.0909-21.2689"/>
        <path class="cls-3" d="M103.3835,96.5978c-2.3646-3.8099-7.1105-4.245-10.6138-4.6347-5.1451-.5551-6.3936-1.8962-9.1894-3.5603-3.3997-1.9959-6.3196-1.1966-8.5862,.0914-3.9456,2.2368-6.4122,6.8566-6.6072,10.8042,.5991-1.7479,1.5699-3.5661,3.5789-5.0146,2.3622-1.6937,7.3006-2.3181,10.0675-1.6682,10.1366,2.4155,17.4402,.2811,21.3502,3.9823"/>
        <path class="cls-3" d="M82.1438,121.9302c-4.1544,2.0893-8.1646,3.25-11.6817,2.2291l-.0039,.0054c3.473,5.1878,10.6624,5.447,16.612,2.4056,2.8483-1.4589,5.9641-3.5259,7.7602-6.5216l-.0928,.0536c-1.6047,.7203-4.8286-2.0781-12.5938,1.8279Z"/>
        <path class="cls-5" d="M103.3314,96.5432c-3.91-3.7012-11.1982-1.5758-21.3502-3.9823-2.7514-.6588-7.7142-.041-10.074,1.6926-1.9846,1.4551-2.9798,3.2667-3.5789,5.0146-.0018,.1041-.01,.2326-.0118,.3367-.0607,3.7875,2.727,6.1161,1.977,10.2809-.8842,4.8609-3.1813,9.2386,.0961,14.1297,3.5261,1.0363,7.5273-.1398,11.6818-2.2291,7.9118-3.9594,11.1108-.9909,12.6513-1.8772l.0109-.0107c.5012-.8461,.9114-1.7426,1.1639-2.7338,1.0856-3.905-.1345-5.8397,4.5351-9.6079,1.1674-.942,5.3203-5.8551,3.2202-10.4569"/>
      </g>
    </g>
  </g>
</svg>