<?xml version="1.0" encoding="UTF-8"?>
<svg id="Layer_2" data-name="Layer 2" xmlns="http://www.w3.org/2000/svg" viewBox="0 0 200 200">
  <defs>
    <style>
      .cls-1 {
        fill: none;
      }

      .cls-2 {
        fill: #00c3c1;
      }

      .cls-2, .cls-3 {
        stroke: #077590;
        stroke-miterlimit: 10;
      }

      .cls-3 {
        fill: #00c4e6;
      }
    </style>
  </defs>
  <g id="Layer_2-2" data-name="Layer 2">
    <g>
      <g>
        <path class="cls-3" d="M24.2872,134.5c13.935-4.2068,19.9823-59.5,39.4388-59.5,13.935,0,21.5599,23.4792,39.4388,25.4512,23.7159,2.603,26.5555,29.842,39.4388,34.0488H24.2872Z"/>
        <g>
          <path class="cls-2" d="M62.726,75c-19.4565,0-25.5037,55.2932-39.4388,59.5h41.7128c6.5243-3.2016,11.2794-25.0334,16.5539-46.9059-6.1137-6.3292-11.6298-12.5941-18.8279-12.5941Z"/>
          <path class="cls-2" d="M142.0691,80.4224c-17.469-3.1319-24.919-40.4224-38.5345-40.4224-9.901,0-16.2477,23.821-21.9807,47.5941,5.722,5.9237,11.9673,11.9037,20.611,12.8571,23.7158,2.603,26.5554,29.842,39.4388,34.0488h39c-12.588-6.6814-15.3624-49.9435-38.5345-54.0776Z"/>
        </g>
        <circle class="cls-2" cx="108" cy="161" r="8"/>
        <circle class="cls-2" cx="63" cy="161" r="8"/>
      </g>
      <rect class="cls-1" width="200" height="200"/>
    </g>
  </g>
</svg>